# xmcd
# 
# Track frame offsets:
#     182
#     18270
#     37835
#     64452
#     85837
#     104705
#     122047
#     146402
#     167055
#     184005
#     206505
#     223760
#     239680
#     266345
# 
# Disc length: 4250
# 
# Revision: 8
# Processed by: cddbd v1.5.2PL0 Copyright (c) Steve Scherf et al.
# Submitted via: fre:ac v1.0.31
# 
DISCID=ca10980e
DTITLE=Modern English - After The Snow
DYEAR=1982
DGENRE=New Wave
TTITLE0=Someone's Calling
TTITLE1=Life In The Gladhouse
TTITLE2=Face Of Wood
TTITLE3=Dawn Chorus
TTITLE4=I Melt With You
TTITLE5=After The Snow
TTITLE6=Carry Me Down
TTITLE7=Tables Turning
TTITLE8=Someone's Calling [bad 309]
TTITLE9=Life In The Gladhouse [bad 309]
TTITLE10=I Melt With You [7" Mix] [ad 212]
TTITLE11=The Prize [ad 212]
TTITLE12=Life In The Gladhouse [bad 208]
TTITLE13=The Choicest View [bad 208]
EXTD=
EXTT0=
EXTT1=
EXTT2=
EXTT3=
EXTT4=
EXTT5=
EXTT6=
EXTT7=
EXTT8=
EXTT9=
EXTT10=
EXTT11=
EXTT12=
EXTT13=
PLAYORDER=
